<?xml version="1.0" ?><!DOCTYPE svg  PUBLIC '-//W3C//DTD SVG 1.1//EN'  'http://www.w3.org/Graphics/SVG/1.1/DTD/svg11.dtd'><svg height="138px" style="enable-background:new 0 0 85 138;" version="1.1" viewBox="0 0 85 138" width="85px" xml:space="preserve" xmlns="http://www.w3.org/2000/svg" xmlns:xlink="http://www.w3.org/1999/xlink"><style type="text/css">
<![CDATA[
	.st0{fill:#EF3E42;}
	.st1{fill:#FFFFFF;}
	.st2{fill:none;}
	.st3{fill-rule:evenodd;clip-rule:evenodd;fill:#FFFFFF;}
]]>
</style><defs/><path d="M52.4,103.1H34.8c-4.7,0-6.2-1.5-7.2-7.7c-1.2-7.5-3.3-15.2-10.9-28.9c-2.6-4.6-4.1-9.8-4.1-15.5c0-17.1,13.9-31,31-31  c17.1,0,31,13.9,31,31c0,5.6-1.6,10.9-4.1,15.5C62.8,80.3,60.8,88,59.6,95.4C58.5,101.7,57.1,103.1,52.4,103.1L52.4,103.1z   M50.8,122.7c-1.3,2.7-4.1,4.5-7.3,4.5c-3.2,0-6-1.9-7.3-4.5H50.8L50.8,122.7z M54.6,111.4H32.3c-0.8,0-1.4-0.7-1.4-1.6v-2  c0-0.9,0.6-1.6,1.4-1.6h22.2c0.8,0,1.4,0.7,1.4,1.6v2C56,110.7,55.4,111.4,54.6,111.4L54.6,111.4z M54.6,119.7H32.3  c-0.8,0-1.4-0.7-1.4-1.6v-2c0-0.9,0.6-1.6,1.4-1.6h22.2c0.8,0,1.4,0.7,1.4,1.6v2C56,118.9,55.4,119.7,54.6,119.7L54.6,119.7z"/><rect class="st2" height="138" id="_x3C_Slice_x3E__100_" width="85"/></svg>